<svg width="252" height="248" viewBox="0 0 252 248" fill="none" xmlns="http://www.w3.org/2000/svg">
<path d="M169.75 20H58.0898C51.4624 20 46.0898 25.3726 46.0898 32V216C46.0898 222.627 51.4624 228 58.0898 228H169.75C176.377 228 181.75 222.627 181.75 216V32C181.75 25.3726 176.377 20 169.75 20Z" fill="#00B2BC"/>
<path d="M160.09 20H58.0898C51.4624 20 46.0898 25.3726 46.0898 32V206.16C46.0898 212.787 51.4624 218.16 58.0898 218.16H160.09C166.717 218.16 172.09 212.787 172.09 206.16V32C172.09 25.3726 166.717 20 160.09 20Z" fill="#B5DEE1"/>
<path d="M181.75 44.72H46.0898V203.28H181.75V44.72Z" fill="#325B8E"/>
<path d="M169.75 230H58.0898C54.3768 230 50.8159 228.525 48.1903 225.899C45.5648 223.274 44.0898 219.713 44.0898 216V32C44.0898 28.287 45.5648 24.726 48.1903 22.1005C50.8159 19.475 54.3768 18 58.0898 18H169.75C173.463 18 177.024 19.475 179.649 22.1005C182.275 24.726 183.75 28.287 183.75 32V216C183.75 219.713 182.275 223.274 179.649 225.899C177.024 228.525 173.463 230 169.75 230ZM58.0898 22C55.4377 22 52.8941 23.0536 51.0188 24.9289C49.1434 26.8043 48.0898 29.3478 48.0898 32V216C48.0898 218.652 49.1434 221.196 51.0188 223.071C52.8941 224.946 55.4377 226 58.0898 226H169.75C172.402 226 174.946 224.946 176.821 223.071C178.696 221.196 179.75 218.652 179.75 216V32C179.75 29.3478 178.696 26.8043 176.821 24.9289C174.946 23.0536 172.402 22 169.75 22H58.0898Z" fill="#325B8E"/>
<path d="M181.75 51.68H46.0898V196.32H181.75V51.68Z" fill="#CBECF9"/>
<path d="M172.09 51.68H46.0898V196.32H172.09V51.68Z" fill="white"/>
<path d="M181.75 198.32H46.0898C45.5594 198.32 45.0507 198.109 44.6756 197.734C44.3006 197.359 44.0898 196.85 44.0898 196.32V51.68C44.0898 51.1496 44.3006 50.6409 44.6756 50.2658C45.0507 49.8907 45.5594 49.68 46.0898 49.68H181.75C182.28 49.68 182.789 49.8907 183.164 50.2658C183.539 50.6409 183.75 51.1496 183.75 51.68V196.32C183.75 196.85 183.539 197.359 183.164 197.734C182.789 198.109 182.28 198.32 181.75 198.32ZM48.0898 194.32H179.75V53.68H48.0898V194.32Z" fill="#00B2BC"/>
<path d="M113.92 218.16C117.234 218.16 119.92 215.474 119.92 212.16C119.92 208.846 117.234 206.16 113.92 206.16C110.606 206.16 107.92 208.846 107.92 212.16C107.92 215.474 110.606 218.16 113.92 218.16Z" fill="white"/>
<path d="M193.47 112.53C191.879 112.53 190.353 111.898 189.228 110.773C188.102 109.647 187.47 108.121 187.47 106.53V94.81C187.47 93.293 186.868 91.8381 185.795 90.7653C184.722 89.6926 183.267 89.09 181.75 89.09C180.233 89.09 178.778 89.6926 177.706 90.7653C176.633 91.8381 176.03 93.293 176.03 94.81V106.53C176.03 108.121 175.398 109.647 174.273 110.773C173.148 111.898 171.622 112.53 170.03 112.53C168.439 112.53 166.913 111.898 165.788 110.773C164.662 109.647 164.03 108.121 164.03 106.53V94.81C164.03 90.1104 165.897 85.6032 169.22 82.2801C172.543 78.9569 177.051 77.09 181.75 77.09C186.45 77.09 190.957 78.9569 194.28 82.2801C197.603 85.6032 199.47 90.1104 199.47 94.81V106.53C199.47 108.121 198.838 109.647 197.713 110.773C196.588 111.898 195.062 112.53 193.47 112.53Z" fill="#FF8888"/>
<path d="M205.91 106.53H157.58V154.86H205.91V106.53Z" fill="#FFC444"/>
<path d="M199.12 106.53H157.58V149.07H199.12V106.53Z" fill="#FFE76E"/>
<path d="M205.91 156.86H157.58C157.05 156.86 156.541 156.649 156.166 156.274C155.791 155.899 155.58 155.39 155.58 154.86V106.53C155.58 106 155.791 105.491 156.166 105.116C156.541 104.741 157.05 104.53 157.58 104.53H205.91C206.441 104.53 206.949 104.741 207.324 105.116C207.699 105.491 207.91 106 207.91 106.53V154.86C207.91 155.123 207.858 155.383 207.758 155.625C207.657 155.868 207.51 156.088 207.324 156.274C207.139 156.46 206.918 156.607 206.675 156.708C206.433 156.808 206.173 156.86 205.91 156.86ZM159.58 152.86H203.91V108.53H159.58V152.86Z" fill="#2FB1EA"/>
<path d="M181.75 120.85C180.431 120.852 179.15 121.289 178.104 122.093C177.059 122.897 176.307 124.022 175.965 125.296C175.624 126.57 175.712 127.921 176.215 129.14C176.718 130.359 177.609 131.378 178.75 132.04V137.52C178.75 138.316 179.066 139.079 179.629 139.641C180.191 140.204 180.954 140.52 181.75 140.52C182.546 140.52 183.309 140.204 183.871 139.641C184.434 139.079 184.75 138.316 184.75 137.52V132C185.891 131.338 186.782 130.319 187.285 129.1C187.789 127.881 187.876 126.53 187.535 125.256C187.193 123.982 186.442 122.857 185.396 122.053C184.35 121.249 183.069 120.812 181.75 120.81V120.85Z" fill="#FF8888"/>
<path d="M22 134C24.7614 134 27 131.761 27 129C27 126.239 24.7614 124 22 124C19.2386 124 17 126.239 17 129C17 131.761 19.2386 134 22 134Z" fill="#D4FFD4"/>
<path d="M126 8C128.209 8 130 6.20914 130 4C130 1.79086 128.209 0 126 0C123.791 0 122 1.79086 122 4C122 6.20914 123.791 8 126 8Z" fill="#D4FFD4"/>
<path d="M246 114C247.657 114 249 112.657 249 111C249 109.343 247.657 108 246 108C244.343 108 243 109.343 243 111C243 112.657 244.343 114 246 114Z" fill="#D4FFD4"/>
<path d="M187 248C188.105 248 189 247.105 189 246C189 244.895 188.105 244 187 244C185.895 244 185 244.895 185 246C185 247.105 185.895 248 187 248Z" fill="#D4FFD4"/>
<path d="M216 196C216.552 196 217 195.552 217 195C217 194.448 216.552 194 216 194C215.448 194 215 194.448 215 195C215 195.552 215.448 196 216 196Z" fill="#D4FFD4"/>
<path d="M247 178C249.761 178 252 175.761 252 173C252 170.239 249.761 168 247 168C244.239 168 242 170.239 242 173C242 175.761 244.239 178 247 178Z" fill="#FFBDBD"/>
<path d="M217 232C219.209 232 221 230.209 221 228C221 225.791 219.209 224 217 224C214.791 224 213 225.791 213 228C213 230.209 214.791 232 217 232Z" fill="#FFBDBD"/>
<path d="M17 106C18.6569 106 20 104.657 20 103C20 101.343 18.6569 100 17 100C15.3431 100 14 101.343 14 103C14 104.657 15.3431 106 17 106Z" fill="#FFBDBD"/>
<path d="M22 195C23.1046 195 24 194.105 24 193C24 191.895 23.1046 191 22 191C20.8954 191 20 191.895 20 193C20 194.105 20.8954 195 22 195Z" fill="#FFBDBD"/>
<path d="M83 237C83.5523 237 84 236.552 84 236C84 235.448 83.5523 235 83 235C82.4477 235 82 235.448 82 236C82 236.552 82.4477 237 83 237Z" fill="#FFBDBD"/>
<path d="M193 57C195.761 57 198 54.7614 198 52C198 49.2386 195.761 47 193 47C190.239 47 188 49.2386 188 52C188 54.7614 190.239 57 193 57Z" fill="#BBF1FF"/>
<path d="M232 92C234.209 92 236 90.2091 236 88C236 85.7909 234.209 84 232 84C229.791 84 228 85.7909 228 88C228 90.2091 229.791 92 232 92Z" fill="#BBF1FF"/>
<path d="M129 243C130.657 243 132 241.657 132 240C132 238.343 130.657 237 129 237C127.343 237 126 238.343 126 240C126 241.657 127.343 243 129 243Z" fill="#BBF1FF"/>
<path d="M228 26C229.105 26 230 25.1046 230 24C230 22.8954 229.105 22 228 22C226.895 22 226 22.8954 226 24C226 25.1046 226.895 26 228 26Z" fill="#BBF1FF"/>
<path d="M226 44C226.552 44 227 43.5523 227 43C227 42.4477 226.552 42 226 42C225.448 42 225 42.4477 225 43C225 43.5523 225.448 44 226 44Z" fill="#BBF1FF"/>
<path d="M5 58C7.76142 58 10 55.7614 10 53C10 50.2386 7.76142 48 5 48C2.23858 48 0 50.2386 0 53C0 55.7614 2.23858 58 5 58Z" fill="#FFF4C5"/>
<path d="M232 140C234.209 140 236 138.209 236 136C236 133.791 234.209 132 232 132C229.791 132 228 133.791 228 136C228 138.209 229.791 140 232 140Z" fill="#FFF4C5"/>
<path d="M173 12C174.657 12 176 10.6569 176 9C176 7.34315 174.657 6 173 6C171.343 6 170 7.34315 170 9C170 10.6569 171.343 12 173 12Z" fill="#FFF4C5"/>
<path d="M40 47C41.1046 47 42 46.1046 42 45C42 43.8954 41.1046 43 40 43C38.8954 43 38 43.8954 38 45C38 46.1046 38.8954 47 40 47Z" fill="#FFF4C5"/>
<path d="M155 238C155.552 238 156 237.552 156 237C156 236.448 155.552 236 155 236C154.448 236 154 236.448 154 237C154 237.552 154.448 238 155 238Z" fill="#FFF4C5"/>
</svg>
