<svg width="390" height="393" viewBox="0 0 390 393" fill="none" xmlns="http://www.w3.org/2000/svg">
<path d="M369.059 72.3972C369.059 30.7311 359.108 20.6917 317.811 20.6917H276.794V0H338.273C366.583 0 389.521 23.1426 389.521 51.7056V113.733H369.012L368.788 61.6584L369.059 72.3972ZM20.5561 72.3972V113.781H0.0476284V51.7056C0.0476284 23.1426 22.9853 0 51.2953 0H112.774V20.6917H71.757C31.0205 20.6917 20.5561 30.7311 20.5561 72.3972ZM20.5561 320.603C20.5561 361.656 31.1139 372.308 71.8038 372.308H112.821V393H51.2953C22.9853 393 0.0476284 369.857 0.0476284 341.294V279.219H20.5561V320.603ZM369.059 320.603V279.219H389.567V341.247C389.567 369.81 366.63 392.953 338.32 392.953H276.794V372.308H317.811C359.108 372.308 369.059 361.656 369.059 320.603Z" fill="url(#paint0_linear)"/>
<defs>
<linearGradient id="paint0_linear" x1="204.5" y1="0" x2="204.5" y2="393" gradientUnits="userSpaceOnUse">
<stop offset="0.342541" stop-color="#325B8E"/>
<stop offset="1" stop-color="#00B2BC"/>
</linearGradient>
</defs>
</svg>
